<svg width="431" height="70" viewBox="0 0 431 70" fill="none" xmlns="http://www.w3.org/2000/svg">
<path d="M9.515 19.59C10.285 19.5533 11.605 19.4983 13.475 19.425C15.3817 19.3517 17.0133 19.315 18.37 19.315C21.4133 19.315 23.9433 19.5533 25.96 20.03C27.9767 20.5067 29.5533 21.4233 30.69 22.78C31.8633 24.1 32.45 26.025 32.45 28.555C32.45 31.635 31.625 34.2383 29.975 36.365C28.325 38.455 26.125 39.7567 23.375 40.27C24.7317 43.9733 26.1433 46.9433 27.61 49.18C29.0767 51.38 30.5067 52.7917 31.9 53.415C31.5333 54.6617 30.8733 55.5783 29.92 56.165C28.9667 56.7883 27.83 57.1 26.51 57.1C24.4933 57.1 22.8067 56.4033 21.45 55.01C20.13 53.58 18.9933 51.5817 18.04 49.015C17.0867 46.4117 15.9133 42.6167 14.52 37.63C14.7767 37.6667 15.0883 37.685 15.455 37.685C18.1317 37.685 20.1667 36.9333 21.56 35.43C22.99 33.89 23.705 31.7267 23.705 28.94C23.705 26.9233 23.3017 25.42 22.495 24.43C21.6883 23.4033 20.3683 22.89 18.535 22.89C17.6917 22.89 16.83 22.9633 15.95 23.11L9.625 56H0.55L7.425 19.7L9.515 19.59ZM60.0246 47.86C60.318 51.0867 61.1613 53.1583 62.5546 54.075C62.188 55.0283 61.5463 55.7617 60.6296 56.275C59.7496 56.825 58.7046 57.1 57.4946 57.1C55.808 57.1 54.5246 56.55 53.6446 55.45C52.8013 54.35 52.1963 52.8283 51.8296 50.885C51.6096 49.6017 51.4446 48.3 51.3346 46.98H41.4346C40.3346 49.62 39.143 52.6267 37.8596 56H30.8196L47.7046 19.7H57.8796L60.0246 47.86ZM50.1246 25.805C48.6946 29.1417 47.0446 33.1017 45.1746 37.685C44.8446 38.4917 44.4963 39.335 44.1296 40.215C43.7996 41.0583 43.433 41.9383 43.0296 42.855H51.0596L50.1246 25.805ZM86.0584 18.6C88.9551 18.6 91.3568 19.1683 93.2634 20.305C95.1701 21.4417 96.1234 23.1833 96.1234 25.53C96.1234 27.4 95.5184 28.9033 94.3084 30.04C93.1351 31.14 91.6868 31.69 89.9634 31.69C88.8268 31.69 87.9468 31.4883 87.3234 31.085C87.7268 29.8017 87.9284 28.4083 87.9284 26.905C87.9284 25.6583 87.6534 24.6133 87.1034 23.77C86.5901 22.9267 85.7284 22.505 84.5184 22.505C82.5384 22.505 80.8151 23.6233 79.3484 25.86C77.9184 28.06 76.8184 30.7 76.0484 33.78C75.3151 36.86 74.9484 39.6467 74.9484 42.14C74.9484 44.7433 75.4618 46.7417 76.4884 48.135C77.5151 49.5283 79.1834 50.225 81.4934 50.225C83.3634 50.225 85.0318 49.7667 86.4984 48.85C87.9651 47.8967 89.2301 46.6133 90.2934 45C91.3568 45.66 91.8884 46.76 91.8884 48.3C91.8884 49.9133 91.2834 51.3983 90.0734 52.755C88.9001 54.1117 87.2684 55.175 85.1784 55.945C83.1251 56.715 80.8518 57.1 78.3584 57.1C74.1418 57.1 70.9518 55.9083 68.7884 53.525C66.6251 51.1417 65.5434 47.585 65.5434 42.855C65.5434 38.675 66.3318 34.7333 67.9084 31.03C69.5218 27.3267 71.8684 24.3383 74.9484 22.065C78.0651 19.755 81.7684 18.6 86.0584 18.6ZM123.317 19.7C123.317 21.68 122.786 23.1833 121.722 24.21C120.659 25.2367 119.119 25.75 117.102 25.75C115.159 25.75 112.977 25.255 110.557 24.265L108.687 34.99H118.532C118.532 36.75 118.056 38.0883 117.102 39.005C116.149 39.885 114.811 40.325 113.087 40.325C112.061 40.325 111.071 40.1967 110.117 39.94C109.164 39.6467 108.412 39.3533 107.862 39.06L105.827 50.225H111.602C113.912 50.225 115.544 50.0233 116.497 49.62C116.717 49.95 116.901 50.3717 117.047 50.885C117.194 51.3983 117.267 51.8933 117.267 52.37C117.267 53.7633 116.681 54.7167 115.507 55.23C114.334 55.7433 112.831 56 110.997 56H95.5424L102.417 19.7H123.317ZM127.529 56H121.644L128.299 19.7H138.144L146.394 46.375L150.849 19.7H156.734L150.079 56H140.234L131.984 29.27L127.529 56ZM164.367 56H158.482L165.137 19.7H174.982L183.232 46.375L187.687 19.7H193.572L186.917 56H177.072L168.822 29.27L164.367 56ZM221.335 47.86C221.629 51.0867 222.472 53.1583 223.865 54.075C223.499 55.0283 222.857 55.7617 221.94 56.275C221.06 56.825 220.015 57.1 218.805 57.1C217.119 57.1 215.835 56.55 214.955 55.45C214.112 54.35 213.507 52.8283 213.14 50.885C212.92 49.6017 212.755 48.3 212.645 46.98H202.745C201.645 49.62 200.454 52.6267 199.17 56H192.13L209.015 19.7H219.19L221.335 47.86ZM211.435 25.805C210.005 29.1417 208.355 33.1017 206.485 37.685C206.155 38.4917 205.807 39.335 205.44 40.215C205.11 41.0583 204.744 41.9383 204.34 42.855H212.37L211.435 25.805Z" fill="white"/>
<path d="M299.185 19.7L296.875 47.805C296.765 48.795 296.71 49.6567 296.71 50.39C296.71 52.37 297.205 53.7817 298.195 54.625C297.682 55.4317 296.948 56.055 295.995 56.495C295.078 56.935 294.015 57.155 292.805 57.155C291.118 57.155 289.927 56.6967 289.23 55.78C288.57 54.8267 288.24 53.415 288.24 51.545C288.24 50.445 288.313 49.345 288.46 48.245L290.33 29.38L278.23 56H272.785L268.165 29.38L262.555 56H256.67L265.14 19.7H274.93L279 42.58L289.505 19.7H299.185ZM321.465 18.6C325.645 18.6 328.762 19.7733 330.815 22.12C332.868 24.43 333.895 27.9317 333.895 32.625C333.895 36.7317 333.143 40.655 331.64 44.395C330.137 48.135 327.863 51.1967 324.82 53.58C321.813 55.9267 318.147 57.1 313.82 57.1C309.64 57.1 306.505 55.945 304.415 53.635C302.362 51.2883 301.335 47.75 301.335 43.02C301.335 38.8767 302.087 34.9533 303.59 31.25C305.093 27.51 307.367 24.4667 310.41 22.12C313.453 19.7733 317.138 18.6 321.465 18.6ZM320.365 22.45C318.128 22.45 316.35 23.6233 315.03 25.97C313.747 28.3167 312.72 31.7817 311.95 36.365C311.62 38.0883 311.327 39.9583 311.07 41.975C310.85 43.955 310.74 45.66 310.74 47.09C310.74 49.0333 311.052 50.5367 311.675 51.6C312.298 52.6633 313.362 53.195 314.865 53.195C317.138 53.195 318.917 52.0033 320.2 49.62C321.52 47.2 322.547 43.7533 323.28 39.28C323.61 37.52 323.885 35.65 324.105 33.67C324.362 31.6533 324.49 29.93 324.49 28.5C324.49 26.5933 324.178 25.1083 323.555 24.045C322.968 22.9817 321.905 22.45 320.365 22.45ZM338.926 28.005C338.706 24.8517 337.862 22.725 336.396 21.625C336.799 20.635 337.441 19.8833 338.321 19.37C339.237 18.8567 340.337 18.6 341.621 18.6C343.931 18.6 345.507 19.37 346.351 20.91C347.231 22.45 347.707 24.65 347.781 27.51L348.606 50.39L361.696 19.7H368.241L351.356 56H340.631L338.926 28.005ZM380.421 19.7L373.326 56H364.141L371.126 19.7H380.421ZM409.368 19.7C409.368 21.68 408.836 23.1833 407.773 24.21C406.709 25.2367 405.169 25.75 403.153 25.75C401.209 25.75 399.028 25.255 396.608 24.265L394.738 34.99H404.583C404.583 36.75 404.106 38.0883 403.153 39.005C402.199 39.885 400.861 40.325 399.138 40.325C398.111 40.325 397.121 40.1967 396.168 39.94C395.214 39.6467 394.463 39.3533 393.913 39.06L391.878 50.225H397.653C399.963 50.225 401.594 50.0233 402.548 49.62C402.768 49.95 402.951 50.3717 403.098 50.885C403.244 51.3983 403.318 51.8933 403.318 52.37C403.318 53.7633 402.731 54.7167 401.558 55.23C400.384 55.7433 398.881 56 397.048 56H381.593L388.468 19.7H409.368Z" fill="white" fill-opacity="0.9"/>
<rect x="234" y="8" width="195" height="60" stroke="#EC5F5F" stroke-width="4"/>
</svg>
